# xmcd
#
# Track frame offsets: 
#        150
#        16214
#        32831
#
# Disc length: 604 seconds
#
# Revision: 0
# Processed by: cddbd v1.5.2PL0 Copyright (c) Steve Scherf et al.
# Submitted via: ExactAudioCopy v0.99pb3
#
DISCID=19025a03
DTITLE=Save Yourself - The McClymonts
DYEAR=2007
DGENRE=Country
TTITLE0=Save yourself
TTITLE1=Shotgun
TTITLE2=Best girl in town
EXTD=
EXTT0=
EXTT1=
EXTT2=
PLAYORDER=
